# xmcd CD database file
#
# Track frame offsets:
#	150
#	21242
#	47162
#	76432
#	103490
#	140207
#	163892
#	186885
#	209267
#	237082
#	272785
#
# Disc length: 3936 seconds
#
# Revision: 0
# Processed by: cddbd v1.5.2PL0 Copyright (c) Steve Scherf et al.
# Submitted via: CDex 1.70beta2
#
DISCID=a60f5e0b
DTITLE=Direction - Three-Direction
DYEAR=2005
DGENRE=Jazz
TTITLE0=Morning Departure
TTITLE1=Three-Direction
TTITLE2=Fetia
TTITLE3=Up To The Downstairs
TTITLE4=Folk Tale
TTITLE5=Mauve
TTITLE6=Moment's Notice
TTITLE7=Shanghai Night
TTITLE8=So Many Stars
TTITLE9=Three Views Of A Secret
TTITLE10=Isn't She Lovely?
EXTD=YEAR: 2005
EXTT0=
EXTT1=
EXTT2=
EXTT3=
EXTT4=
EXTT5=
EXTT6=
EXTT7=
EXTT8=
EXTT9=
EXTT10=
PLAYORDER=
